<?xml version="1.0" encoding="UTF-8" standalone="no"?>
<!-- Created with Inkscape (http://www.inkscape.org/) -->

<svg
   xmlns:dc="http://purl.org/dc/elements/1.1/"
   xmlns:cc="http://creativecommons.org/ns#"
   xmlns:rdf="http://www.w3.org/1999/02/22-rdf-syntax-ns#"
   xmlns:svg="http://www.w3.org/2000/svg"
   xmlns="http://www.w3.org/2000/svg"
   xmlns:sodipodi="http://sodipodi.sourceforge.net/DTD/sodipodi-0.dtd"
   xmlns:inkscape="http://www.inkscape.org/namespaces/inkscape"
   width="744.09448819"
   height="1052.3622047"
   id="svg2"
   version="1.1"
   inkscape:version="0.48.4 r9939"
   sodipodi:docname="simple_BCPNN.svg">
  <defs
     id="defs4">
    <marker
       inkscape:stockid="SemiCircleIn"
       orient="auto"
       refY="0.0"
       refX="0.0"
       id="SemiCircleIn"
       style="overflow:visible">
      <path
         id="path4066"
         d="M -0.37450702,-0.045692580 C -0.37450702,2.7143074 1.8654930,4.9543074 4.6254930,4.9543074 L 4.6254930,-5.0456926 C 1.8654930,-5.0456926 -0.37450702,-2.8056926 -0.37450702,-0.045692580 z "
         style="fill-rule:evenodd;stroke:#000000;stroke-width:1.0pt"
         transform="scale(0.6)" />
    </marker>
    <marker
       inkscape:stockid="Arrow2Mend"
       orient="auto"
       refY="0.0"
       refX="0.0"
       id="Arrow2Mend"
       style="overflow:visible;">
      <path
         id="path3915"
         style="fill-rule:evenodd;stroke-width:0.62500000;stroke-linejoin:round;"
         d="M 8.7185878,4.0337352 L -2.2072895,0.016013256 L 8.7185884,-4.0017078 C 6.9730900,-1.6296469 6.9831476,1.6157441 8.7185878,4.0337352 z "
         transform="scale(0.6) rotate(180) translate(0,0)" />
    </marker>
    <marker
       inkscape:stockid="Arrow1Send"
       orient="auto"
       refY="0.0"
       refX="0.0"
       id="Arrow1Send"
       style="overflow:visible;">
      <path
         id="path4309"
         d="M 0.0,0.0 L 5.0,-5.0 L -12.5,0.0 L 5.0,5.0 L 0.0,0.0 z "
         style="fill-rule:evenodd;stroke:#000000;stroke-width:1.0pt;"
         transform="scale(0.2) rotate(180) translate(6,0)" />
    </marker>
    <marker
       inkscape:stockid="Arrow1Mstart"
       orient="auto"
       refY="0.0"
       refX="0.0"
       id="Arrow1Mstart"
       style="overflow:visible">
      <path
         id="path4300"
         d="M 0.0,0.0 L 5.0,-5.0 L -12.5,0.0 L 5.0,5.0 L 0.0,0.0 z "
         style="fill-rule:evenodd;stroke:#000000;stroke-width:1.0pt"
         transform="scale(0.4) translate(10,0)" />
    </marker>
    <marker
       inkscape:stockid="Arrow1Lend"
       orient="auto"
       refY="0.0"
       refX="0.0"
       id="Arrow1Lend"
       style="overflow:visible;">
      <path
         id="path4297"
         d="M 0.0,0.0 L 5.0,-5.0 L -12.5,0.0 L 5.0,5.0 L 0.0,0.0 z "
         style="fill-rule:evenodd;stroke:#000000;stroke-width:1.0pt;"
         transform="scale(0.8) rotate(180) translate(12.5,0)" />
    </marker>
    <marker
       inkscape:stockid="Arrow1Send"
       orient="auto"
       refY="0"
       refX="0"
       id="Arrow1Send-6"
       style="overflow:visible">
      <path
         inkscape:connector-curvature="0"
         id="path4309-2"
         d="M 0,0 5,-5 -12.5,0 5,5 0,0 z"
         style="fill-rule:evenodd;stroke:#000000;stroke-width:1pt"
         transform="matrix(-0.2,0,0,-0.2,-1.2,0)" />
    </marker>
  </defs>
  <sodipodi:namedview
     id="base"
     pagecolor="#ffffff"
     bordercolor="#666666"
     borderopacity="1.0"
     inkscape:pageopacity="0.0"
     inkscape:pageshadow="2"
     inkscape:zoom="7.9999996"
     inkscape:cx="117.28223"
     inkscape:cy="971.19367"
     inkscape:document-units="px"
     inkscape:current-layer="layer1"
     showgrid="false"
     inkscape:window-width="1855"
     inkscape:window-height="1056"
     inkscape:window-x="65"
     inkscape:window-y="24"
     inkscape:window-maximized="1">
    <inkscape:grid
       type="xygrid"
       id="grid2985"
       empspacing="5"
       visible="true"
       enabled="true"
       snapvisiblegridlinesonly="true" />
  </sodipodi:namedview>
  <metadata
     id="metadata7">
    <rdf:RDF>
      <cc:Work
         rdf:about="">
        <dc:format>image/svg+xml</dc:format>
        <dc:type
           rdf:resource="http://purl.org/dc/dcmitype/StillImage" />
        <dc:title></dc:title>
      </cc:Work>
    </rdf:RDF>
  </metadata>
  <g
     inkscape:label="Layer 1"
     inkscape:groupmode="layer"
     id="layer1"
     style="display:inline;opacity:1">
    <path
       sodipodi:type="arc"
       style="fill:none;stroke:#000000;stroke-width:1px;stroke-linecap:butt;stroke-linejoin:miter;stroke-opacity:1"
       id="path2987"
       sodipodi:cx="160"
       sodipodi:cy="162.36218"
       sodipodi:rx="70"
       sodipodi:ry="70"
       d="m 230,162.36218 a 70,70 0 1 1 -140,0 70,70 0 1 1 140,0 z"
       transform="matrix(0.95900284,0,0,0.94879876,-4.6011684,-62.668998)" />
    <path
       style="fill:none;stroke:#0000ff;stroke-width:1px;stroke-linecap:butt;stroke-linejoin:miter;stroke-opacity:1"
       d="m 117,76.612181 c -0.875,1.5 -1.875,12.5 -1.875,12.5"
       id="path3068"
       inkscape:connector-curvature="0"
       sodipodi:nodetypes="cc" />
    <path
       style="fill:none;stroke:#0000ff;stroke-width:1px;stroke-linecap:butt;stroke-linejoin:miter;stroke-opacity:1"
       d="m 123,76.362181 15,40.999999"
       id="path3078"
       inkscape:connector-curvature="0" />
    <path
       style="fill:none;stroke:#0000ff;stroke-width:1px;stroke-linecap:butt;stroke-linejoin:miter;stroke-opacity:1"
       d="m 127,73.987181 13.375,11.25 0,0"
       id="path3157"
       inkscape:connector-curvature="0" />
    <g
       id="g5124"
       style="stroke:#0000ff">
      <path
         style="fill:#0000ff;fill-rule:evenodd;stroke:none"
         d="m 184.39457,99.71547 c -1.6497,0.14433 -2.87145,1.60035 -2.72712,3.25005 l 5.97717,-0.52293 c -0.14433,-1.6497 -1.60035,-2.87145 -3.25005,-2.72712 z"
         id="path5130"
         inkscape:connector-curvature="0" />
    </g>
    <rect
       style="fill:#0000ff;stroke:#0000ff"
       id="rect3295"
       width="20.75"
       height="9.25"
       x="12.5"
       y="40.612183" />
    <rect
       style="fill:#ff0000;stroke:#ff0000"
       id="rect3297"
       width="22.25"
       height="10.25"
       x="12"
       y="53.612183" />
    <text
       xml:space="preserve"
       style="font-size:40px;font-style:normal;font-weight:normal;line-height:125%;letter-spacing:0px;word-spacing:0px;fill:#000000;fill-opacity:1;stroke:none;font-family:Sans"
       x="36.982231"
       y="61.340107"
       id="text3299"
       sodipodi:linespacing="125%"><tspan
         sodipodi:role="line"
         id="tspan3301"
         x="36.982231"
         y="61.340107"
         style="font-size:10px">excitation</tspan></text>
    <text
       xml:space="preserve"
       style="font-size:40px;font-style:normal;font-weight:normal;line-height:125%;letter-spacing:0px;word-spacing:0px;fill:#000000;fill-opacity:1;stroke:none;font-family:Sans"
       x="38.233772"
       y="48.301628"
       id="text3299-3"
       sodipodi:linespacing="125%"><tspan
         sodipodi:role="line"
         id="tspan3301-5"
         x="38.233772"
         y="48.301628"
         style="font-size:10px">inhibition</tspan></text>
    <text
       xml:space="preserve"
       style="font-size:16px;font-style:normal;font-weight:normal;line-height:125%;letter-spacing:0px;word-spacing:0px;fill:#000000;fill-opacity:1;stroke:none;font-family:Sans"
       x="6.125"
       y="105.98718"
       id="text3324"
       sodipodi:linespacing="125%"><tspan
         sodipodi:role="line"
         id="tspan3326"
         x="6.125"
         y="105.98718">1</tspan></text>
    <text
       xml:space="preserve"
       style="font-size:40px;font-style:normal;font-weight:normal;line-height:125%;letter-spacing:0px;word-spacing:0px;fill:#000000;fill-opacity:1;stroke:none;font-family:Sans"
       x="38.5"
       y="94.737183"
       id="text3328"
       sodipodi:linespacing="125%"><tspan
         sodipodi:role="line"
         id="tspan3330"
         x="38.5"
         y="94.737183" /></text>
    <text
       sodipodi:linespacing="125%"
       id="text3332"
       y="105.61218"
       x="59.125"
       style="font-size:16px;font-style:normal;font-weight:normal;line-height:125%;letter-spacing:0px;word-spacing:0px;fill:#000000;fill-opacity:1;stroke:none;font-family:Sans"
       xml:space="preserve"><tspan
         y="105.61218"
         x="59.125"
         id="tspan3334"
         sodipodi:role="line">3</tspan></text>
    <text
       xml:space="preserve"
       style="font-size:16px;font-style:normal;font-weight:normal;line-height:125%;letter-spacing:0px;word-spacing:0px;fill:#000000;fill-opacity:1;stroke:none;font-family:Sans"
       x="32.75"
       y="105.36218"
       id="text3336"
       sodipodi:linespacing="125%"><tspan
         sodipodi:role="line"
         id="tspan3338"
         x="32.75"
         y="105.36218">2</tspan></text>
    <path
       style="fill:none;stroke:#000000;stroke-width:1px;stroke-linecap:butt;stroke-linejoin:miter;stroke-opacity:1;marker-start:none;marker-end:url(#Arrow1Send)"
       d="M 15.25,99.98718 31.375,99.862181"
       id="path3340"
       inkscape:connector-curvature="0"
       sodipodi:nodetypes="cc" />
    <path
       style="fill:none;stroke:#000000;stroke-width:1px;stroke-linecap:butt;stroke-linejoin:miter;stroke-opacity:1;marker-start:none;marker-end:url(#Arrow1Send)"
       d="m 42.85002,99.59513 16.125,-0.125"
       id="path3340-9"
       inkscape:connector-curvature="0"
       sodipodi:nodetypes="cc" />
    <text
       xml:space="preserve"
       style="font-size:40px;font-style:normal;font-weight:normal;line-height:125%;letter-spacing:0px;word-spacing:0px;fill:#000000;fill-opacity:1;stroke:none;font-family:Sans"
       x="14.672465"
       y="87.338203"
       id="text5132"
       sodipodi:linespacing="125%"><tspan
         sodipodi:role="line"
         id="tspan5134"
         x="14.672465"
         y="87.338203"
         style="font-size:10px">sequence</tspan></text>
    <g
       id="g4924"
       style="stroke:#0000ff">
      <path
         style="fill:#0000ff;fill-rule:evenodd;stroke:#0000ff"
         d="m 170.53162,71.843621 c -0.17201,1.647042 1.02512,3.123374 2.67216,3.295384 l 0.62323,-5.967545 c -1.64705,-0.172009 -3.12338,1.025119 -3.29539,2.672161 z"
         id="path4930"
         inkscape:connector-curvature="0" />
      <path
         inkscape:connector-curvature="0"
         id="path3929"
         d="m 140.10726,53.912748 c 0.11662,1.651889 1.55192,2.897914 3.2038,2.781305 l -0.4225,-5.985108 c -1.65189,0.116616 -2.89791,1.551915 -2.7813,3.203803 z"
         style="fill:#0000ff;fill-rule:evenodd;stroke:#0000ff" />
      <path
         style="fill:none;stroke:#0000ff;stroke-width:1px;stroke-linecap:butt;stroke-linejoin:miter;stroke-opacity:1"
         d="m 129.31215,58.081647 11.13694,-4.065864"
         id="path3931"
         inkscape:connector-curvature="0" />
      <path
         style="fill:none;stroke:#0000ff;stroke-width:1px;stroke-linecap:butt;stroke-linejoin:miter;stroke-opacity:1"
         d="m 131.52186,65.506269 39.24443,6.098796 0,0 0,0"
         id="path3933"
         inkscape:connector-curvature="0" />
      <path
         style="fill:none;stroke:#0000ff;stroke-width:1px;stroke-linecap:butt;stroke-linejoin:miter;stroke-opacity:1"
         d="m 130.81475,61.793957 c 53.20979,36.857942 53.82851,30.140428 53.82851,38.006991"
         id="path3937"
         inkscape:connector-curvature="0"
         sodipodi:nodetypes="cc" />
    </g>
    <path
       sodipodi:type="arc"
       style="fill:#ffe680;stroke:#000000"
       id="path3003-3-6"
       sodipodi:cx="132.5"
       sodipodi:cy="77.362183"
       sodipodi:rx="12.5"
       sodipodi:ry="10"
       d="m 145,77.362183 a 12.5,10 0 1 1 -25,0 12.5,10 0 1 1 25,0 z"
       transform="matrix(0.99609672,0,0,1.2094066,54.088619,-20.128652)" />
    <path
       sodipodi:type="arc"
       style="fill:#ffd42a;stroke:#000000"
       id="path3003-3"
       sodipodi:cx="132.5"
       sodipodi:cy="77.362183"
       sodipodi:rx="12.5"
       sodipodi:ry="10"
       d="m 145,77.362183 a 12.5,10 0 1 1 -25,0 12.5,10 0 1 1 25,0 z"
       transform="matrix(0.99609672,0,0,1.2094066,23.552901,-40.485838)" />
    <g
       style="stroke:#0000ff"
       id="g3113"
       transform="matrix(0.70587157,-0.70833984,0.70833984,0.70587157,-62.218523,143.85054)">
      <path
         inkscape:connector-curvature="0"
         id="path3115"
         d="m 184.39457,99.71547 c -1.6497,0.14433 -2.87145,1.60035 -2.72712,3.25005 l 5.97717,-0.52293 c -0.14433,-1.6497 -1.60035,-2.87145 -3.25005,-2.72712 z"
         style="fill:#0000ff;fill-rule:evenodd;stroke:none" />
    </g>
    <g
       transform="matrix(0.9055688,-0.42419943,0.42419943,0.9055688,-72.688261,103.03542)"
       id="g3921"
       style="stroke:#0000ff">
      <path
         style="fill:#0000ff;fill-rule:evenodd;stroke:none"
         d="m 184.39457,99.71547 c -1.6497,0.14433 -2.87145,1.60035 -2.72712,3.25005 l 5.97717,-0.52293 c -0.14433,-1.6497 -1.60035,-2.87145 -3.25005,-2.72712 z"
         id="path3923"
         inkscape:connector-curvature="0" />
    </g>
    <g
       style="stroke:#0000ff"
       id="g3925"
       transform="matrix(0.94028813,0.34037955,-0.34037955,0.94028813,-23.874744,-70.263689)">
      <path
         inkscape:connector-curvature="0"
         id="path3927"
         d="m 184.39457,99.71547 c -1.6497,0.14433 -2.87145,1.60035 -2.72712,3.25005 l 5.97717,-0.52293 c -0.14433,-1.6497 -1.60035,-2.87145 -3.25005,-2.72712 z"
         style="fill:#0000ff;fill-rule:evenodd;stroke:none" />
    </g>
    <path
       sodipodi:type="arc"
       style="fill:#d4aa00;stroke:#000000"
       id="path3003"
       sodipodi:cx="132.5"
       sodipodi:cy="77.362183"
       sodipodi:rx="12.5"
       sodipodi:ry="10"
       d="m 145,77.362183 a 12.5,10 0 1 1 -25,0 12.5,10 0 1 1 25,0 z"
       transform="matrix(0.99609672,0,0,1.2094066,-13.411388,-28.878725)" />
    <text
       xml:space="preserve"
       style="font-size:12px;font-style:normal;font-weight:normal;line-height:125%;letter-spacing:0px;word-spacing:0px;fill:#000000;fill-opacity:1;stroke:none;font-family:Sans"
       x="114.125"
       y="68.799683"
       id="text3034"
       sodipodi:linespacing="125%"><tspan
         sodipodi:role="line"
         id="tspan3036"
         x="114.125"
         y="68.799683">1</tspan></text>
    <text
       xml:space="preserve"
       style="font-size:12px;font-style:normal;font-weight:normal;line-height:125%;letter-spacing:0px;word-spacing:0px;fill:#000000;fill-opacity:1;stroke:none;font-family:Sans"
       x="152.07715"
       y="57.111202"
       id="text3034-3"
       sodipodi:linespacing="125%"><tspan
         sodipodi:role="line"
         id="tspan3036-6"
         x="152.07715"
         y="57.111202">2</tspan></text>
    <text
       xml:space="preserve"
       style="font-size:12px;font-style:normal;font-weight:normal;line-height:125%;letter-spacing:0px;word-spacing:0px;fill:#000000;fill-opacity:1;stroke:none;font-family:Sans"
       x="182.66495"
       y="77.570091"
       id="text3034-7"
       sodipodi:linespacing="125%"><tspan
         sodipodi:role="line"
         id="tspan3036-5"
         x="182.66495"
         y="77.570091">3</tspan></text>
    <path
       sodipodi:type="arc"
       style="fill:#999999;stroke:#000000"
       id="path3003-3-7-3"
       sodipodi:cx="132.5"
       sodipodi:cy="77.362183"
       sodipodi:rx="12.5"
       sodipodi:ry="10"
       d="m 145,77.362183 a 12.5,10 0 1 1 -25,0 12.5,10 0 1 1 25,0 z"
       transform="matrix(0.99609672,0,0,1.2094066,18.910047,-0.66436923)" />
    <path
       sodipodi:type="arc"
       style="fill:#b3b3b3;stroke:#000000"
       id="path3003-3-7"
       sodipodi:cx="132.5"
       sodipodi:cy="77.362183"
       sodipodi:rx="12.5"
       sodipodi:ry="10"
       d="m 145,77.362183 a 12.5,10 0 1 1 -25,0 12.5,10 0 1 1 25,0 z"
       transform="matrix(0.99609672,0,0,1.2094066,-20.73281,7.3713481)" />
    <path
       sodipodi:type="arc"
       style="fill:#999999;stroke:#000000"
       id="path3003-3-7-5"
       sodipodi:cx="132.5"
       sodipodi:cy="77.362183"
       sodipodi:rx="12.5"
       sodipodi:ry="10"
       d="m 145,77.362183 a 12.5,10 0 1 1 -25,0 12.5,10 0 1 1 25,0 z"
       transform="matrix(0.99609672,0,0,1.2094066,12.660047,34.514203)" />
    <path
       sodipodi:type="arc"
       style="fill:#999999;stroke:#000000"
       id="path3003-3-7-56"
       sodipodi:cx="132.5"
       sodipodi:cy="77.362183"
       sodipodi:rx="12.5"
       sodipodi:ry="10"
       d="m 145,77.362183 a 12.5,10 0 1 1 -25,0 12.5,10 0 1 1 25,0 z"
       transform="matrix(0.99609672,0,0,1.2094066,53.910047,21.121345)" />
    <g
       style="fill:#ff0000;stroke:#0000ff;stroke-width:1.0007267;display:inline"
       id="g3939"
       transform="matrix(0.92040112,-0.31238178,0.25363243,0.99882323,-82.051293,8.8011279)">
      <path
         inkscape:connector-curvature="0"
         id="path3941"
         d="m 184.39457,99.71547 c -1.6497,0.14433 -2.87145,1.60035 -2.72712,3.25005 l 5.97717,-0.52293 c -0.14433,-1.6497 -1.60035,-2.87145 -3.25005,-2.72712 z"
         style="fill:#ff0000;fill-rule:evenodd;stroke:none" />
    </g>
    <path
       style="fill:none;stroke:#ff0000;stroke-width:1px;stroke-linecap:butt;stroke-linejoin:miter;stroke-opacity:1"
       d="m 105.77394,63.031364 c -12.745301,-1.222386 1.53729,-19.101738 8.42381,-10.769902"
       id="path5451"
       inkscape:connector-curvature="0"
       sodipodi:nodetypes="cc" />
  </g>
</svg>
