<?xml version="1.0" encoding="UTF-8" standalone="no"?>
<!-- Created with Inkscape (http://www.inkscape.org/) -->

<svg
   xmlns:dc="http://purl.org/dc/elements/1.1/"
   xmlns:cc="http://creativecommons.org/ns#"
   xmlns:rdf="http://www.w3.org/1999/02/22-rdf-syntax-ns#"
   xmlns:svg="http://www.w3.org/2000/svg"
   xmlns="http://www.w3.org/2000/svg"
   xmlns:sodipodi="http://sodipodi.sourceforge.net/DTD/sodipodi-0.dtd"
   xmlns:inkscape="http://www.inkscape.org/namespaces/inkscape"
   width="744.09448819"
   height="1052.3622047"
   id="svg2"
   version="1.1"
   inkscape:version="0.48.4 r9939"
   sodipodi:docname="nmda_4.svg"
   inkscape:export-filename="/home/heberto/learning/attractor_sequences/plots/nmda_4.png"
   inkscape:export-xdpi="180"
   inkscape:export-ydpi="180">
  <defs
     id="defs4">
    <marker
       inkscape:stockid="SemiCircleIn"
       orient="auto"
       refY="0.0"
       refX="0.0"
       id="SemiCircleIn"
       style="overflow:visible">
      <path
         id="path4066"
         d="M -0.37450702,-0.045692580 C -0.37450702,2.7143074 1.8654930,4.9543074 4.6254930,4.9543074 L 4.6254930,-5.0456926 C 1.8654930,-5.0456926 -0.37450702,-2.8056926 -0.37450702,-0.045692580 z "
         style="fill-rule:evenodd;stroke:#000000;stroke-width:1.0pt"
         transform="scale(0.6)" />
    </marker>
    <marker
       inkscape:stockid="Arrow2Mend"
       orient="auto"
       refY="0.0"
       refX="0.0"
       id="Arrow2Mend"
       style="overflow:visible;">
      <path
         id="path3915"
         style="fill-rule:evenodd;stroke-width:0.62500000;stroke-linejoin:round;"
         d="M 8.7185878,4.0337352 L -2.2072895,0.016013256 L 8.7185884,-4.0017078 C 6.9730900,-1.6296469 6.9831476,1.6157441 8.7185878,4.0337352 z "
         transform="scale(0.6) rotate(180) translate(0,0)" />
    </marker>
    <marker
       inkscape:stockid="Arrow1Send"
       orient="auto"
       refY="0.0"
       refX="0.0"
       id="Arrow1Send"
       style="overflow:visible;">
      <path
         id="path4309"
         d="M 0.0,0.0 L 5.0,-5.0 L -12.5,0.0 L 5.0,5.0 L 0.0,0.0 z "
         style="fill-rule:evenodd;stroke:#000000;stroke-width:1.0pt;"
         transform="scale(0.2) rotate(180) translate(6,0)" />
    </marker>
    <marker
       inkscape:stockid="Arrow1Mstart"
       orient="auto"
       refY="0.0"
       refX="0.0"
       id="Arrow1Mstart"
       style="overflow:visible">
      <path
         id="path4300"
         d="M 0.0,0.0 L 5.0,-5.0 L -12.5,0.0 L 5.0,5.0 L 0.0,0.0 z "
         style="fill-rule:evenodd;stroke:#000000;stroke-width:1.0pt"
         transform="scale(0.4) translate(10,0)" />
    </marker>
    <marker
       inkscape:stockid="Arrow1Lend"
       orient="auto"
       refY="0.0"
       refX="0.0"
       id="Arrow1Lend"
       style="overflow:visible;">
      <path
         id="path4297"
         d="M 0.0,0.0 L 5.0,-5.0 L -12.5,0.0 L 5.0,5.0 L 0.0,0.0 z "
         style="fill-rule:evenodd;stroke:#000000;stroke-width:1.0pt;"
         transform="scale(0.8) rotate(180) translate(12.5,0)" />
    </marker>
    <marker
       inkscape:stockid="Arrow1Send"
       orient="auto"
       refY="0"
       refX="0"
       id="Arrow1Send-6"
       style="overflow:visible">
      <path
         inkscape:connector-curvature="0"
         id="path4309-2"
         d="M 0,0 5,-5 -12.5,0 5,5 0,0 z"
         style="fill-rule:evenodd;stroke:#000000;stroke-width:1pt"
         transform="matrix(-0.2,0,0,-0.2,-1.2,0)" />
    </marker>
  </defs>
  <sodipodi:namedview
     id="base"
     pagecolor="#ffffff"
     bordercolor="#666666"
     borderopacity="1.0"
     inkscape:pageopacity="0.0"
     inkscape:pageshadow="2"
     inkscape:zoom="2.8284272"
     inkscape:cx="153.45285"
     inkscape:cy="953.86495"
     inkscape:document-units="px"
     inkscape:current-layer="layer1"
     showgrid="false"
     inkscape:window-width="1855"
     inkscape:window-height="1056"
     inkscape:window-x="1985"
     inkscape:window-y="24"
     inkscape:window-maximized="1"
     showguides="true"
     inkscape:guide-bbox="true">
    <inkscape:grid
       type="xygrid"
       id="grid2985"
       empspacing="5"
       visible="true"
       enabled="true"
       snapvisiblegridlinesonly="true" />
  </sodipodi:namedview>
  <metadata
     id="metadata7">
    <rdf:RDF>
      <cc:Work
         rdf:about="">
        <dc:format>image/svg+xml</dc:format>
        <dc:type
           rdf:resource="http://purl.org/dc/dcmitype/StillImage" />
        <dc:title></dc:title>
      </cc:Work>
    </rdf:RDF>
  </metadata>
  <g
     inkscape:label="Layer 1"
     inkscape:groupmode="layer"
     id="layer1"
     style="display:inline;opacity:1">
    <path
       sodipodi:type="arc"
       style="fill:none;stroke:#000000;stroke-width:1px;stroke-linecap:butt;stroke-linejoin:miter;stroke-opacity:1"
       id="path2987"
       sodipodi:cx="160"
       sodipodi:cy="162.36218"
       sodipodi:rx="70"
       sodipodi:ry="70"
       d="m 230,162.36218 a 70,70 0 1 1 -140,0 70,70 0 1 1 140,0 z"
       transform="matrix(0.95900284,0,0,0.94879876,-4.6011684,-62.668998)" />
    <path
       style="fill:none;stroke:#0000ff;stroke-width:1px;stroke-linecap:butt;stroke-linejoin:miter;stroke-opacity:1"
       d="m 117,76.612181 c -0.875,1.5 -1.875,12.5 -1.875,12.5"
       id="path3068"
       inkscape:connector-curvature="0"
       sodipodi:nodetypes="cc" />
    <path
       style="fill:none;stroke:#0000ff;stroke-width:1px;stroke-linecap:butt;stroke-linejoin:miter;stroke-opacity:1"
       d="m 123,76.362181 15,40.999999"
       id="path3078"
       inkscape:connector-curvature="0" />
    <path
       style="fill:none;stroke:#0000ff;stroke-width:1px;stroke-linecap:butt;stroke-linejoin:miter;stroke-opacity:1"
       d="m 127,73.987181 13.375,11.25 0,0"
       id="path3157"
       inkscape:connector-curvature="0" />
    <g
       id="g5124"
       style="stroke:#0000ff">
      <path
         style="fill:#0000ff;fill-rule:evenodd;stroke:none"
         d="m 184.39457,99.71547 c -1.6497,0.14433 -2.87145,1.60035 -2.72712,3.25005 l 5.97717,-0.52293 c -0.14433,-1.6497 -1.60035,-2.87145 -3.25005,-2.72712 z"
         id="path5130"
         inkscape:connector-curvature="0" />
    </g>
    <rect
       style="fill:#0000ff;stroke:#0000ff"
       id="rect3295"
       width="20.75"
       height="9.25"
       x="12.5"
       y="40.612183" />
    <rect
       style="fill:#ff0000;stroke:#ff0000"
       id="rect3297"
       width="22.25"
       height="10.25"
       x="12"
       y="53.612183" />
    <text
       xml:space="preserve"
       style="font-size:40px;font-style:normal;font-weight:normal;line-height:125%;letter-spacing:0px;word-spacing:0px;fill:#000000;fill-opacity:1;stroke:none;font-family:Sans"
       x="36.982231"
       y="61.340107"
       id="text3299"
       sodipodi:linespacing="125%"><tspan
         sodipodi:role="line"
         id="tspan3301"
         x="36.982231"
         y="61.340107"
         style="font-size:10px">excitation</tspan></text>
    <text
       xml:space="preserve"
       style="font-size:40px;font-style:normal;font-weight:normal;line-height:125%;letter-spacing:0px;word-spacing:0px;fill:#000000;fill-opacity:1;stroke:none;font-family:Sans"
       x="38.233772"
       y="48.301628"
       id="text3299-3"
       sodipodi:linespacing="125%"><tspan
         sodipodi:role="line"
         id="tspan3301-5"
         x="38.233772"
         y="48.301628"
         style="font-size:10px">inhibition</tspan></text>
    <text
       xml:space="preserve"
       style="font-size:16px;font-style:normal;font-weight:normal;line-height:125%;letter-spacing:0px;word-spacing:0px;fill:#000000;fill-opacity:1;stroke:none;font-family:Sans"
       x="6.125"
       y="105.98718"
       id="text3324"
       sodipodi:linespacing="125%"><tspan
         sodipodi:role="line"
         id="tspan3326"
         x="6.125"
         y="105.98718">1</tspan></text>
    <text
       xml:space="preserve"
       style="font-size:40px;font-style:normal;font-weight:normal;line-height:125%;letter-spacing:0px;word-spacing:0px;fill:#000000;fill-opacity:1;stroke:none;font-family:Sans"
       x="38.5"
       y="94.737183"
       id="text3328"
       sodipodi:linespacing="125%"><tspan
         sodipodi:role="line"
         id="tspan3330"
         x="38.5"
         y="94.737183" /></text>
    <text
       sodipodi:linespacing="125%"
       id="text3332"
       y="105.61218"
       x="59.125"
       style="font-size:16px;font-style:normal;font-weight:normal;line-height:125%;letter-spacing:0px;word-spacing:0px;fill:#000000;fill-opacity:1;stroke:none;font-family:Sans"
       xml:space="preserve"><tspan
         y="105.61218"
         x="59.125"
         id="tspan3334"
         sodipodi:role="line">3</tspan></text>
    <text
       xml:space="preserve"
       style="font-size:16px;font-style:normal;font-weight:normal;line-height:125%;letter-spacing:0px;word-spacing:0px;fill:#000000;fill-opacity:1;stroke:none;font-family:Sans"
       x="32.75"
       y="105.36218"
       id="text3336"
       sodipodi:linespacing="125%"><tspan
         sodipodi:role="line"
         id="tspan3338"
         x="32.75"
         y="105.36218">2</tspan></text>
    <path
       style="fill:none;stroke:#000000;stroke-width:1px;stroke-linecap:butt;stroke-linejoin:miter;stroke-opacity:1;marker-start:none;marker-end:url(#Arrow1Send)"
       d="M 15.25,99.98718 31.375,99.862181"
       id="path3340"
       inkscape:connector-curvature="0"
       sodipodi:nodetypes="cc" />
    <path
       style="fill:none;stroke:#000000;stroke-width:1px;stroke-linecap:butt;stroke-linejoin:miter;stroke-opacity:1;marker-start:none;marker-end:url(#Arrow1Send)"
       d="m 42.85002,99.59513 16.125,-0.125"
       id="path3340-9"
       inkscape:connector-curvature="0"
       sodipodi:nodetypes="cc" />
    <text
       xml:space="preserve"
       style="font-size:40px;font-style:normal;font-weight:normal;line-height:125%;letter-spacing:0px;word-spacing:0px;fill:#000000;fill-opacity:1;stroke:none;font-family:Sans"
       x="14.672465"
       y="87.338203"
       id="text5132"
       sodipodi:linespacing="125%"><tspan
         sodipodi:role="line"
         id="tspan5134"
         x="14.672465"
         y="87.338203"
         style="font-size:10px">sequence</tspan></text>
    <g
       id="g4924"
       style="stroke:#0000ff">
      <path
         inkscape:connector-curvature="0"
         id="path3929"
         d="m 140.10726,53.912748 c 0.11662,1.651889 1.55192,2.897914 3.2038,2.781305 l -0.4225,-5.985108 c -1.65189,0.116616 -2.89791,1.551915 -2.7813,3.203803 z"
         style="fill:#ff0000;fill-rule:evenodd;stroke:#ff0000" />
      <path
         style="fill:#ff0000;fill-rule:evenodd;stroke:#ff0000"
         d="m 170.53162,71.843621 c -0.17201,1.647042 1.02512,3.123374 2.67216,3.295384 l 0.62323,-5.967545 c -1.64705,-0.172009 -3.12338,1.025119 -3.29539,2.672161 z"
         id="path4930"
         inkscape:connector-curvature="0" />
      <path
         style="fill:none;stroke:#ff0000;stroke-width:1px;stroke-linecap:butt;stroke-linejoin:miter;stroke-opacity:1"
         d="m 129.31215,58.081647 11.13694,-4.065864"
         id="path3931"
         inkscape:connector-curvature="0" />
      <path
         style="fill:none;stroke:#ff0000;stroke-width:1px;stroke-linecap:butt;stroke-linejoin:miter;stroke-opacity:1"
         d="m 131.52186,65.506269 39.24443,6.098796 0,0 0,0"
         id="path3933"
         inkscape:connector-curvature="0" />
      <path
         style="fill:none;stroke:#0000ff;stroke-width:1px;stroke-linecap:butt;stroke-linejoin:miter;stroke-opacity:1"
         d="m 130.81475,61.793957 c 53.20979,36.857942 53.82851,30.140428 53.82851,38.006991"
         id="path3937"
         inkscape:connector-curvature="0"
         sodipodi:nodetypes="cc" />
    </g>
    <path
       sodipodi:type="arc"
       style="fill:#ffe680;stroke:#000000"
       id="path3003-3-6"
       sodipodi:cx="132.5"
       sodipodi:cy="77.362183"
       sodipodi:rx="12.5"
       sodipodi:ry="10"
       d="m 145,77.362183 a 12.5,10 0 1 1 -25,0 12.5,10 0 1 1 25,0 z"
       transform="matrix(0.99609672,0,0,1.2094066,54.088619,-20.128652)" />
    <path
       sodipodi:type="arc"
       style="fill:#ffd42a;stroke:#000000"
       id="path3003-3"
       sodipodi:cx="132.5"
       sodipodi:cy="77.362183"
       sodipodi:rx="12.5"
       sodipodi:ry="10"
       d="m 145,77.362183 a 12.5,10 0 1 1 -25,0 12.5,10 0 1 1 25,0 z"
       transform="matrix(0.99609672,0,0,1.2094066,23.552901,-40.485838)" />
    <g
       style="stroke:#0000ff"
       id="g3113"
       transform="matrix(0.70587157,-0.70833984,0.70833984,0.70587157,-62.218523,143.85054)">
      <path
         inkscape:connector-curvature="0"
         id="path3115"
         d="m 184.39457,99.71547 c -1.6497,0.14433 -2.87145,1.60035 -2.72712,3.25005 l 5.97717,-0.52293 c -0.14433,-1.6497 -1.60035,-2.87145 -3.25005,-2.72712 z"
         style="fill:#0000ff;fill-rule:evenodd;stroke:none" />
    </g>
    <g
       transform="matrix(0.9055688,-0.42419943,0.42419943,0.9055688,-72.688261,103.03542)"
       id="g3921"
       style="stroke:#0000ff">
      <path
         style="fill:#0000ff;fill-rule:evenodd;stroke:none"
         d="m 184.39457,99.71547 c -1.6497,0.14433 -2.87145,1.60035 -2.72712,3.25005 l 5.97717,-0.52293 c -0.14433,-1.6497 -1.60035,-2.87145 -3.25005,-2.72712 z"
         id="path3923"
         inkscape:connector-curvature="0" />
    </g>
    <g
       style="stroke:#0000ff"
       id="g3925"
       transform="matrix(0.94028813,0.34037955,-0.34037955,0.94028813,-23.874744,-70.263689)">
      <path
         inkscape:connector-curvature="0"
         id="path3927"
         d="m 184.39457,99.71547 c -1.6497,0.14433 -2.87145,1.60035 -2.72712,3.25005 l 5.97717,-0.52293 c -0.14433,-1.6497 -1.60035,-2.87145 -3.25005,-2.72712 z"
         style="fill:#0000ff;fill-rule:evenodd;stroke:none" />
    </g>
    <path
       style="opacity:0.5;fill:none;stroke:#ff0000;stroke-width:1px;stroke-linecap:butt;stroke-linejoin:miter;stroke-opacity:1"
       d="m 123.25,53.112183 c -1.5,-4.3125 177,-90.125 180.75,-15.125"
       id="path3958"
       inkscape:connector-curvature="0"
       sodipodi:nodetypes="cc" />
    <g
       style="stroke:#0000ff;fill:#ff0000;opacity:0.5"
       id="g3939"
       transform="translate(80.917525,-49.470302)">
      <path
         inkscape:connector-curvature="0"
         id="path3941"
         d="m 184.39457,99.71547 c -1.6497,0.14433 -2.87145,1.60035 -2.72712,3.25005 l 5.97717,-0.52293 c -0.14433,-1.6497 -1.60035,-2.87145 -3.25005,-2.72712 z"
         style="fill:#ff0000;fill-rule:evenodd;stroke:none" />
    </g>
    <path
       sodipodi:type="arc"
       style="fill:#d4aa00;stroke:#000000"
       id="path3003"
       sodipodi:cx="132.5"
       sodipodi:cy="77.362183"
       sodipodi:rx="12.5"
       sodipodi:ry="10"
       d="m 145,77.362183 a 12.5,10 0 1 1 -25,0 12.5,10 0 1 1 25,0 z"
       transform="matrix(0.99609672,0,0,1.2094066,-13.411388,-28.878725)" />
    <text
       xml:space="preserve"
       style="font-size:12px;font-style:normal;font-weight:normal;line-height:125%;letter-spacing:0px;word-spacing:0px;fill:#000000;fill-opacity:1;stroke:none;font-family:Sans"
       x="114.125"
       y="68.799683"
       id="text3034"
       sodipodi:linespacing="125%"><tspan
         sodipodi:role="line"
         id="tspan3036"
         x="114.125"
         y="68.799683">1</tspan></text>
    <path
       transform="matrix(0.95900284,0,0,0.94879876,145.39883,-62.668998)"
       d="m 230,162.36218 a 70,70 0 1 1 -140,0 70,70 0 1 1 140,0 z"
       sodipodi:ry="70"
       sodipodi:rx="70"
       sodipodi:cy="162.36218"
       sodipodi:cx="160"
       id="path3943"
       style="fill:none;stroke:#000000;stroke-width:1px;stroke-linecap:butt;stroke-linejoin:miter;stroke-opacity:1"
       sodipodi:type="arc" />
    <path
       sodipodi:nodetypes="cc"
       inkscape:connector-curvature="0"
       id="path3965"
       d="m 267,76.612181 c -0.875,1.5 -1.875,12.5 -1.875,12.5"
       style="fill:none;stroke:#0000ff;stroke-width:1px;stroke-linecap:butt;stroke-linejoin:miter;stroke-opacity:1" />
    <path
       inkscape:connector-curvature="0"
       id="path3967"
       d="m 273,76.362181 15,40.999999"
       style="fill:none;stroke:#0000ff;stroke-width:1px;stroke-linecap:butt;stroke-linejoin:miter;stroke-opacity:1" />
    <path
       inkscape:connector-curvature="0"
       id="path3969"
       d="m 277,73.987181 13.375,11.25 0,0"
       style="fill:none;stroke:#0000ff;stroke-width:1px;stroke-linecap:butt;stroke-linejoin:miter;stroke-opacity:1" />
    <g
       style="stroke:#0000ff"
       id="g3971"
       transform="translate(150,0)">
      <path
         inkscape:connector-curvature="0"
         id="path3973"
         d="m 184.39457,99.71547 c -1.6497,0.14433 -2.87145,1.60035 -2.72712,3.25005 l 5.97717,-0.52293 c -0.14433,-1.6497 -1.60035,-2.87145 -3.25005,-2.72712 z"
         style="fill:#0000ff;fill-rule:evenodd;stroke:none" />
    </g>
    <g
       style="stroke:#0000ff"
       id="g3975"
       transform="translate(150,0)">
      <path
         inkscape:connector-curvature="0"
         id="path3977"
         d="m 170.53162,71.843621 c -0.17201,1.647042 1.02512,3.123374 2.67216,3.295384 l 0.62323,-5.967545 c -1.64705,-0.172009 -3.12338,1.025119 -3.29539,2.672161 z"
         style="fill:#ff0000;fill-rule:evenodd;stroke:#ff0000" />
      <path
         style="fill:#ff0000;fill-rule:evenodd;stroke:#ff0000"
         d="m 140.10726,53.912748 c 0.11662,1.651889 1.55192,2.897914 3.2038,2.781305 l -0.4225,-5.985108 c -1.65189,0.116616 -2.89791,1.551915 -2.7813,3.203803 z"
         id="path3979"
         inkscape:connector-curvature="0" />
      <path
         inkscape:connector-curvature="0"
         id="path3981"
         d="m 129.31215,58.081647 11.13694,-4.065864"
         style="fill:none;stroke:#ff0000;stroke-width:1px;stroke-linecap:butt;stroke-linejoin:miter;stroke-opacity:1" />
      <path
         inkscape:connector-curvature="0"
         id="path3983"
         d="m 131.52186,65.506269 39.24443,6.098796 0,0 0,0"
         style="fill:none;stroke:#ff0000;stroke-width:1px;stroke-linecap:butt;stroke-linejoin:miter;stroke-opacity:1" />
      <path
         sodipodi:nodetypes="cc"
         inkscape:connector-curvature="0"
         id="path3985"
         d="m 130.81475,61.793957 c 53.20979,36.857942 53.82851,30.140428 53.82851,38.006991"
         style="fill:none;stroke:#0000ff;stroke-width:1px;stroke-linecap:butt;stroke-linejoin:miter;stroke-opacity:1" />
    </g>
    <path
       transform="matrix(0.99609672,0,0,1.2094066,173.5529,-40.485838)"
       d="m 145,77.362183 a 12.5,10 0 1 1 -25,0 12.5,10 0 1 1 25,0 z"
       sodipodi:ry="10"
       sodipodi:rx="12.5"
       sodipodi:cy="77.362183"
       sodipodi:cx="132.5"
       id="path3945"
       style="fill:#ffd42a;stroke:#000000"
       sodipodi:type="arc" />
    <g
       transform="matrix(0.70587157,-0.70833984,0.70833984,0.70587157,87.781477,143.85054)"
       id="g3987"
       style="stroke:#0000ff">
      <path
         style="fill:#0000ff;fill-rule:evenodd;stroke:none"
         d="m 184.39457,99.71547 c -1.6497,0.14433 -2.87145,1.60035 -2.72712,3.25005 l 5.97717,-0.52293 c -0.14433,-1.6497 -1.60035,-2.87145 -3.25005,-2.72712 z"
         id="path3989"
         inkscape:connector-curvature="0" />
    </g>
    <g
       style="stroke:#0000ff"
       id="g3991"
       transform="matrix(0.9055688,-0.42419943,0.42419943,0.9055688,77.311739,103.03542)">
      <path
         inkscape:connector-curvature="0"
         id="path3993"
         d="m 184.39457,99.71547 c -1.6497,0.14433 -2.87145,1.60035 -2.72712,3.25005 l 5.97717,-0.52293 c -0.14433,-1.6497 -1.60035,-2.87145 -3.25005,-2.72712 z"
         style="fill:#0000ff;fill-rule:evenodd;stroke:none" />
    </g>
    <g
       transform="matrix(0.94028813,0.34037955,-0.34037955,0.94028813,126.12526,-70.263689)"
       id="g3995"
       style="stroke:#0000ff">
      <path
         style="fill:#0000ff;fill-rule:evenodd;stroke:none"
         d="m 184.39457,99.71547 c -1.6497,0.14433 -2.87145,1.60035 -2.72712,3.25005 l 5.97717,-0.52293 c -0.14433,-1.6497 -1.60035,-2.87145 -3.25005,-2.72712 z"
         id="path3997"
         inkscape:connector-curvature="0" />
    </g>
    <path
       transform="matrix(0.99609672,0,0,1.2094066,136.58861,-28.878725)"
       d="m 145,77.362183 a 12.5,10 0 1 1 -25,0 12.5,10 0 1 1 25,0 z"
       sodipodi:ry="10"
       sodipodi:rx="12.5"
       sodipodi:cy="77.362183"
       sodipodi:cx="132.5"
       id="path3999"
       style="fill:#d4aa00;stroke:#000000"
       sodipodi:type="arc" />
    <text
       sodipodi:linespacing="125%"
       id="text4001"
       y="68.799683"
       x="264.125"
       style="font-size:12px;font-style:normal;font-weight:normal;line-height:125%;letter-spacing:0px;word-spacing:0px;fill:#000000;fill-opacity:1;stroke:none;font-family:Sans"
       xml:space="preserve"><tspan
         y="68.799683"
         x="264.125"
         id="tspan4003"
         sodipodi:role="line">1</tspan></text>
    <g
       transform="translate(119.54323,-61.844671)"
       id="g3146"
       style="fill:#ff0000;stroke:#0000ff;opacity:0.5">
      <path
         style="fill:#ff0000;fill-rule:evenodd;stroke:none"
         d="m 184.39457,99.71547 c -1.6497,0.14433 -2.87145,1.60035 -2.72712,3.25005 l 5.97717,-0.52293 c -0.14433,-1.6497 -1.60035,-2.87145 -3.25005,-2.72712 z"
         id="path3148"
         inkscape:connector-curvature="0" />
    </g>
    <g
       style="fill:#ff0000;stroke:#0000ff;opacity:0.5"
       id="g3150"
       transform="translate(149.50688,-41.338574)">
      <path
         inkscape:connector-curvature="0"
         id="path3152"
         d="m 184.39457,99.71547 c -1.6497,0.14433 -2.87145,1.60035 -2.72712,3.25005 l 5.97717,-0.52293 c -0.14433,-1.6497 -1.60035,-2.87145 -3.25005,-2.72712 z"
         style="fill:#ff0000;fill-rule:evenodd;stroke:none" />
    </g>
    <path
       transform="matrix(0.99609672,0,0,1.2094066,204.08862,-20.128652)"
       d="m 145,77.362183 a 12.5,10 0 1 1 -25,0 12.5,10 0 1 1 25,0 z"
       sodipodi:ry="10"
       sodipodi:rx="12.5"
       sodipodi:cy="77.362183"
       sodipodi:cx="132.5"
       id="path3947"
       style="fill:#ffe680;stroke:#000000"
       sodipodi:type="arc" />
    <path
       style="fill:none;stroke:#ff0000;stroke-width:1px;stroke-linecap:butt;stroke-linejoin:miter;stroke-opacity:1;opacity:0.5"
       d="M 117.37973,52.15964 C 116.23068,45.928261 259.39391,30.084 264.69721,50.41332"
       id="path3960"
       inkscape:connector-curvature="0"
       sodipodi:nodetypes="cc" />
    <path
       style="opacity:0.5;fill:none;stroke:#ff0000;stroke-width:1px;stroke-linecap:butt;stroke-linejoin:miter;stroke-opacity:1"
       d="m 114.5625,52.674683 c -4.05286,-6.267618 200.09375,-84.65625 219.09375,5.84375"
       id="path3962"
       inkscape:connector-curvature="0"
       sodipodi:nodetypes="cc" />
    <text
       xml:space="preserve"
       style="font-size:12px;font-style:normal;font-weight:normal;line-height:125%;letter-spacing:0px;word-spacing:0px;fill:#000000;fill-opacity:1;stroke:none;font-family:Sans"
       x="152.07715"
       y="57.111202"
       id="text3034-3"
       sodipodi:linespacing="125%"><tspan
         sodipodi:role="line"
         id="tspan3036-6"
         x="152.07715"
         y="57.111202">2</tspan></text>
    <text
       xml:space="preserve"
       style="font-size:12px;font-style:normal;font-weight:normal;line-height:125%;letter-spacing:0px;word-spacing:0px;fill:#000000;fill-opacity:1;stroke:none;font-family:Sans"
       x="182.66495"
       y="77.570091"
       id="text3034-7"
       sodipodi:linespacing="125%"><tspan
         sodipodi:role="line"
         id="tspan3036-5"
         x="182.66495"
         y="77.570091">3</tspan></text>
    <path
       sodipodi:type="arc"
       style="fill:#b3b3b3;stroke:#000000"
       id="path3003-3-7"
       sodipodi:cx="132.5"
       sodipodi:cy="77.362183"
       sodipodi:rx="12.5"
       sodipodi:ry="10"
       d="m 145,77.362183 a 12.5,10 0 1 1 -25,0 12.5,10 0 1 1 25,0 z"
       transform="matrix(0.99609672,0,0,1.2094066,-20.73281,7.3713481)" />
    <path
       sodipodi:type="arc"
       style="fill:#999999;stroke:#000000"
       id="path3003-3-7-3"
       sodipodi:cx="132.5"
       sodipodi:cy="77.362183"
       sodipodi:rx="12.5"
       sodipodi:ry="10"
       d="m 145,77.362183 a 12.5,10 0 1 1 -25,0 12.5,10 0 1 1 25,0 z"
       transform="matrix(0.99609672,0,0,1.2094066,18.910047,-0.66436923)" />
    <path
       sodipodi:type="arc"
       style="fill:#999999;stroke:#000000"
       id="path3003-3-7-5"
       sodipodi:cx="132.5"
       sodipodi:cy="77.362183"
       sodipodi:rx="12.5"
       sodipodi:ry="10"
       d="m 145,77.362183 a 12.5,10 0 1 1 -25,0 12.5,10 0 1 1 25,0 z"
       transform="matrix(0.99609672,0,0,1.2094066,12.660047,34.514203)" />
    <path
       sodipodi:type="arc"
       style="fill:#999999;stroke:#000000"
       id="path3003-3-7-56"
       sodipodi:cx="132.5"
       sodipodi:cy="77.362183"
       sodipodi:rx="12.5"
       sodipodi:ry="10"
       d="m 145,77.362183 a 12.5,10 0 1 1 -25,0 12.5,10 0 1 1 25,0 z"
       transform="matrix(0.99609672,0,0,1.2094066,53.910047,21.121345)" />
    <path
       sodipodi:type="arc"
       style="fill:#d4aa00;stroke:#000000;display:inline"
       id="path3195"
       sodipodi:cx="132.5"
       sodipodi:cy="77.362183"
       sodipodi:rx="12.5"
       sodipodi:ry="10"
       d="m 145,77.362183 a 12.5,10 0 1 1 -25,0 12.5,10 0 1 1 25,0 z"
       transform="matrix(0.99609673,0,0,1.2094066,-7.2436536,95.444412)" />
    <text
       xml:space="preserve"
       style="font-size:12px;font-style:normal;font-weight:normal;line-height:125%;letter-spacing:0px;word-spacing:0px;fill:#000000;fill-opacity:1;stroke:none;display:inline;font-family:Sans"
       x="120.99984"
       y="192.5925"
       id="text3197"
       sodipodi:linespacing="125%"><tspan
         sodipodi:role="line"
         id="tspan3199"
         x="120.99984"
         y="192.5925">1</tspan></text>
    <path
       transform="translate(90.669181,-146.35672)"
       d="m 193.39371,334.29523 a 1.0606602,0.88388348 0 1 1 -2.12132,0 1.0606602,0.88388348 0 1 1 2.12132,0 z"
       sodipodi:ry="0.88388348"
       sodipodi:rx="1.0606602"
       sodipodi:cy="334.29523"
       sodipodi:cx="192.33305"
       id="path3201"
       style="fill:#000000;stroke:#000000;stroke-width:1;stroke-miterlimit:4;stroke-dasharray:none;display:inline"
       sodipodi:type="arc" />
    <path
       transform="translate(95.669181,-146.35672)"
       sodipodi:type="arc"
       style="fill:#000000;stroke:#000000;stroke-width:1;stroke-miterlimit:4;stroke-dasharray:none;display:inline"
       id="path3203"
       sodipodi:cx="192.33305"
       sodipodi:cy="334.29523"
       sodipodi:rx="1.0606602"
       sodipodi:ry="0.88388348"
       d="m 193.39371,334.29523 a 1.0606602,0.88388348 0 1 1 -2.12132,0 1.0606602,0.88388348 0 1 1 2.12132,0 z" />
    <path
       d="m 193.39371,334.29523 a 1.0606602,0.88388348 0 1 1 -2.12132,0 1.0606602,0.88388348 0 1 1 2.12132,0 z"
       sodipodi:ry="0.88388348"
       sodipodi:rx="1.0606602"
       sodipodi:cy="334.29523"
       sodipodi:cx="192.33305"
       id="path3205"
       style="fill:#000000;stroke:#000000;stroke-width:1;stroke-miterlimit:4;stroke-dasharray:none;display:inline"
       sodipodi:type="arc"
       transform="translate(100.66917,-146.35672)" />
    <path
       transform="matrix(0.99609673,0,0,1.2094066,37.756351,95.444422)"
       d="m 145,77.362183 a 12.5,10 0 1 1 -25,0 12.5,10 0 1 1 25,0 z"
       sodipodi:ry="10"
       sodipodi:rx="12.5"
       sodipodi:cy="77.362183"
       sodipodi:cx="132.5"
       id="path3207"
       style="fill:#ffd42a;stroke:#000000;display:inline"
       sodipodi:type="arc" />
    <text
       sodipodi:linespacing="125%"
       id="text3209"
       y="192.4157"
       x="165.29276"
       style="font-size:12px;font-style:normal;font-weight:normal;line-height:125%;letter-spacing:0px;word-spacing:0px;fill:#000000;fill-opacity:1;stroke:none;display:inline;font-family:Sans"
       xml:space="preserve"><tspan
         y="192.4157"
         x="165.29276"
         id="tspan3211"
         sodipodi:role="line">2</tspan></text>
    <path
       sodipodi:type="arc"
       style="fill:#ffdd55;stroke:#000000;display:inline"
       id="path3213"
       sodipodi:cx="132.5"
       sodipodi:cy="77.362183"
       sodipodi:rx="12.5"
       sodipodi:ry="10"
       d="m 145,77.362183 a 12.5,10 0 1 1 -25,0 12.5,10 0 1 1 25,0 z"
       transform="matrix(0.99609673,0,0,1.2094066,82.756361,95.444412)" />
    <text
       xml:space="preserve"
       style="font-size:12px;font-style:normal;font-weight:normal;line-height:125%;letter-spacing:0px;word-spacing:0px;fill:#000000;fill-opacity:1;stroke:none;display:inline;font-family:Sans"
       x="210.4695"
       y="192.5925"
       id="text3215"
       sodipodi:linespacing="125%"><tspan
         sodipodi:role="line"
         id="tspan3217"
         x="210.4695"
         y="192.5925">3</tspan></text>
    <path
       transform="matrix(0.99609673,0,0,1.2094066,127.75635,95.444422)"
       d="m 145,77.362183 a 12.5,10 0 1 1 -25,0 12.5,10 0 1 1 25,0 z"
       sodipodi:ry="10"
       sodipodi:rx="12.5"
       sodipodi:cy="77.362183"
       sodipodi:cx="132.5"
       id="path3219"
       style="fill:#ffdd55;stroke:#000000;display:inline"
       sodipodi:type="arc" />
    <text
       sodipodi:linespacing="125%"
       id="text3221"
       y="192.23894"
       x="255.64626"
       style="font-size:12px;font-style:normal;font-weight:normal;line-height:125%;letter-spacing:0px;word-spacing:0px;fill:#000000;fill-opacity:1;stroke:none;display:inline;font-family:Sans"
       xml:space="preserve"><tspan
         y="192.23894"
         x="255.64626"
         id="tspan3223"
         sodipodi:role="line">4</tspan></text>
    <path
       sodipodi:type="arc"
       style="fill:#ffeeaa;stroke:#000000;display:inline"
       id="path3225"
       sodipodi:cx="132.5"
       sodipodi:cy="77.362183"
       sodipodi:rx="12.5"
       sodipodi:ry="10"
       d="m 145,77.362183 a 12.5,10 0 1 1 -25,0 12.5,10 0 1 1 25,0 z"
       transform="matrix(0.99609673,0,0,1.2094066,192.75636,95.444412)" />
    <text
       xml:space="preserve"
       style="font-size:12px;font-style:normal;font-weight:normal;line-height:125%;letter-spacing:0px;word-spacing:0px;fill:#000000;fill-opacity:1;stroke:none;display:inline;font-family:Sans"
       x="321.17657"
       y="191.88539"
       id="text3227"
       sodipodi:linespacing="125%"><tspan
         sodipodi:role="line"
         id="tspan3229"
         x="321.17657"
         y="191.88539">n</tspan></text>
    <g
       style="display:inline"
       transform="translate(-3.8002546,-183.1065)"
       id="g3231">
      <path
         inkscape:connector-curvature="0"
         id="path3233"
         style="fill-rule:evenodd;stroke-width:0.625;stroke-linejoin:round"
         d="m 154.37139,368.78367 6.30732,3.00065 -6.74868,1.80037 c 1.17318,-1.32138 1.34543,-3.26099 0.44136,-4.80102 z" />
      <path
         sodipodi:nodetypes="cc"
         inkscape:connector-curvature="0"
         id="path3235"
         d="m 140.8126,370.96681 14.25731,0.1464"
         style="fill:none;stroke:#000000;stroke-width:2;stroke-linecap:butt;stroke-linejoin:miter;stroke-miterlimit:4;stroke-opacity:1;stroke-dasharray:none" />
      <path
         sodipodi:nodetypes="cc"
         inkscape:connector-curvature="0"
         id="path3237"
         d="m 136.56078,362.6773 c 0,0 63.47926,-15.79377 70.74518,-4.29341"
         style="fill:none;stroke:#000000;stroke-width:1;stroke-linecap:butt;stroke-linejoin:miter;stroke-miterlimit:4;stroke-opacity:1;stroke-dasharray:none" />
      <path
         d="m 199.5067,369.45733 6.30732,3.00065 -6.74868,1.80037 c 1.17318,-1.32138 1.34543,-3.26099 0.44136,-4.80102 z"
         style="fill-rule:evenodd;stroke-width:0.625;stroke-linejoin:round"
         id="path3239"
         inkscape:connector-curvature="0" />
      <path
         d="m 207.84106,355.51714 3.15056,6.23379 -6.43854,-2.70763 c 1.73658,-0.32669 3.06012,-1.75496 3.28798,-3.52616 z"
         style="fill-rule:evenodd;stroke-width:0.625;stroke-linejoin:round"
         id="path3241"
         inkscape:connector-curvature="0" />
      <path
         d="m 252.17443,387.04229 6.12363,-3.35966 -2.48825,6.52646 c -0.38525,-1.72453 -1.85749,-2.999 -3.63538,-3.1668 z"
         style="fill-rule:evenodd;stroke-width:0.625;stroke-linejoin:round"
         id="path3243"
         inkscape:connector-curvature="0" />
      <path
         inkscape:connector-curvature="0"
         id="path3245"
         style="fill-rule:evenodd;stroke-width:0.625;stroke-linejoin:round"
         d="m 244.3533,369.93852 6.30732,3.00065 -6.74868,1.80037 c 1.17318,-1.32138 1.34543,-3.26099 0.44136,-4.80102 z" />
      <path
         inkscape:connector-curvature="0"
         id="path3247"
         style="fill-rule:evenodd;stroke-width:0.625;stroke-linejoin:round"
         d="m 252.97637,355.61338 3.15056,6.23379 -6.43854,-2.70763 c 1.73658,-0.32669 3.06012,-1.75496 3.28798,-3.52616 z" />
      <path
         d="m 318.22528,355.61338 3.15056,6.23379 -6.43854,-2.70763 c 1.73658,-0.32669 3.06012,-1.75496 3.28798,-3.52616 z"
         style="fill-rule:evenodd;stroke-width:0.625;stroke-linejoin:round"
         id="path3249"
         inkscape:connector-curvature="0" />
      <path
         inkscape:connector-curvature="0"
         id="path3251"
         style="fill-rule:evenodd;stroke-width:0.625;stroke-linejoin:round"
         d="m 318.38572,387.23476 6.12363,-3.35966 -2.48825,6.52646 c -0.38525,-1.72453 -1.85749,-2.999 -3.63538,-3.1668 z" />
      <path
         d="m 309.33121,370.23053 6.55009,2.42539 -6.56093,2.39586 c 1.05049,-1.42087 1.04883,-3.36811 0.0108,-4.82125 z"
         style="fill-rule:evenodd;stroke-width:0.625;stroke-linejoin:round"
         id="path3253"
         inkscape:connector-curvature="0" />
      <path
         style="fill:none;stroke:#000000;stroke-width:2;stroke-linecap:butt;stroke-linejoin:miter;stroke-miterlimit:4;stroke-opacity:1;stroke-dasharray:none"
         d="m 186.52317,371.79832 13.73703,0.14556"
         id="path3255"
         inkscape:connector-curvature="0" />
    </g>
    <path
       sodipodi:nodetypes="cc"
       inkscape:connector-curvature="0"
       id="path3257"
       d="m 130.36289,199.76255 c 0,0 112.67141,13.88946 120.56522,4.90686"
       style="fill:none;stroke:#000000;stroke-width:0.5;stroke-linecap:butt;stroke-linejoin:miter;stroke-miterlimit:4;stroke-opacity:1;stroke-dasharray:none;display:inline" />
    <path
       inkscape:connector-curvature="0"
       id="path3259"
       d="m 227.69211,189.02858 c 0.41555,0.10389 13.71305,0.31167 13.71305,0.31167"
       style="fill:none;stroke:#000000;stroke-width:2;stroke-linecap:butt;stroke-linejoin:miter;stroke-miterlimit:4;stroke-opacity:1;stroke-dasharray:none;display:inline" />
    <path
       sodipodi:nodetypes="cc"
       inkscape:connector-curvature="0"
       id="path3261"
       d="m 175.85265,178.06854 c 0.3636,-5.50599 56.2027,-21.14094 72.20125,-3.48021"
       style="fill:none;stroke:#000000;stroke-width:1px;stroke-linecap:butt;stroke-linejoin:miter;stroke-opacity:1;display:inline" />
    <path
       sodipodi:nodetypes="cc"
       inkscape:connector-curvature="0"
       id="path3263"
       d="m 218.96562,177.08161 c 0.1039,-3.01271 52.77445,-18.28405 60.66984,0.20778"
       style="opacity:0.5;fill:none;stroke:#000000;stroke-width:1px;stroke-linecap:butt;stroke-linejoin:miter;stroke-opacity:1;display:inline" />
    <path
       inkscape:connector-curvature="0"
       id="path3265"
       d="m 272.35227,188.8837 6.46439,0.14692"
       style="fill:none;stroke:#000000;stroke-width:2;stroke-linecap:butt;stroke-linejoin:miter;stroke-miterlimit:4;stroke-opacity:1;stroke-dasharray:none;display:inline" />
    <path
       inkscape:connector-curvature="0"
       id="path3267"
       d="m 175.38643,199.60872 c 2.20377,0.73459 105.78093,32.7627 112.53915,0"
       style="opacity:0.5;fill:none;stroke:#000000;stroke-width:0.5;stroke-linecap:butt;stroke-linejoin:miter;stroke-miterlimit:4;stroke-opacity:1;stroke-dasharray:none;display:inline" />
    <path
       sodipodi:nodetypes="cc"
       inkscape:connector-curvature="0"
       id="path3269"
       d="m 215.93578,200.93099 c 0.58767,0.73459 69.63911,15.72021 71.54905,-1.17536"
       style="opacity:0.5;fill:none;stroke:#000000;stroke-width:0.5;stroke-linecap:butt;stroke-linejoin:miter;stroke-miterlimit:4;stroke-opacity:1;stroke-dasharray:none;display:inline" />
    <path
       inkscape:connector-curvature="0"
       id="path3271"
       d="m 266.91631,178.89328 c 0,0 16.60174,-15.27947 20.86236,0.44076"
       style="opacity:0.5;fill:none;stroke:#000000;stroke-width:1px;stroke-linecap:butt;stroke-linejoin:miter;stroke-opacity:1;display:inline" />
    <path
       inkscape:connector-curvature="0"
       id="path3273"
       d="m 292.18621,176.68951 c 0,0 7.05206,-16.74865 21.15618,-1.90993"
       style="opacity:0.5;fill:none;stroke:#000000;stroke-width:1px;stroke-linecap:butt;stroke-linejoin:miter;stroke-opacity:1;display:inline" />
    <path
       inkscape:connector-curvature="0"
       id="path3275"
       d="m 296.44242,189.55062 9.99921,0.13535"
       style="opacity:0.5;fill:none;stroke:#000000;stroke-width:2;stroke-linecap:butt;stroke-linejoin:miter;stroke-miterlimit:4;stroke-opacity:1;stroke-dasharray:none;display:inline" />
    <path
       inkscape:connector-curvature="0"
       id="path3277"
       d="m 292.33312,205.63236 c 0,0 18.07092,6.46439 24.68222,-0.88151"
       style="opacity:0.5;fill:none;stroke:#000000;stroke-width:0.5;stroke-linecap:butt;stroke-linejoin:miter;stroke-miterlimit:4;stroke-opacity:1;stroke-dasharray:none;display:inline" />
    <text
       sodipodi:linespacing="125%"
       id="text3957"
       y="57.111202"
       x="302.07715"
       style="font-size:12px;font-style:normal;font-weight:normal;line-height:125%;letter-spacing:0px;word-spacing:0px;fill:#000000;fill-opacity:1;stroke:none;font-family:Sans"
       xml:space="preserve"><tspan
         y="57.111202"
         x="302.07715"
         id="tspan3959"
         sodipodi:role="line">2</tspan></text>
    <text
       sodipodi:linespacing="125%"
       id="text3961"
       y="77.570091"
       x="332.66495"
       style="font-size:12px;font-style:normal;font-weight:normal;line-height:125%;letter-spacing:0px;word-spacing:0px;fill:#000000;fill-opacity:1;stroke:none;font-family:Sans"
       xml:space="preserve"><tspan
         y="77.570091"
         x="332.66495"
         id="tspan3963"
         sodipodi:role="line">3</tspan></text>
    <path
       transform="matrix(0.99609672,0,0,1.2094066,203.91005,21.121345)"
       d="m 145,77.362183 a 12.5,10 0 1 1 -25,0 12.5,10 0 1 1 25,0 z"
       sodipodi:ry="10"
       sodipodi:rx="12.5"
       sodipodi:cy="77.362183"
       sodipodi:cx="132.5"
       id="path3955"
       style="fill:#999999;stroke:#000000"
       sodipodi:type="arc" />
    <path
       transform="matrix(0.99609672,0,0,1.2094066,168.91005,-0.66436923)"
       d="m 145,77.362183 a 12.5,10 0 1 1 -25,0 12.5,10 0 1 1 25,0 z"
       sodipodi:ry="10"
       sodipodi:rx="12.5"
       sodipodi:cy="77.362183"
       sodipodi:cx="132.5"
       id="path3953"
       style="fill:#999999;stroke:#000000"
       sodipodi:type="arc" />
    <path
       transform="matrix(0.99609672,0,0,1.2094066,162.66005,34.514203)"
       d="m 145,77.362183 a 12.5,10 0 1 1 -25,0 12.5,10 0 1 1 25,0 z"
       sodipodi:ry="10"
       sodipodi:rx="12.5"
       sodipodi:cy="77.362183"
       sodipodi:cx="132.5"
       id="path3951"
       style="fill:#999999;stroke:#000000"
       sodipodi:type="arc" />
    <path
       transform="matrix(0.99609672,0,0,1.2094066,129.26719,7.3713481)"
       d="m 145,77.362183 a 12.5,10 0 1 1 -25,0 12.5,10 0 1 1 25,0 z"
       sodipodi:ry="10"
       sodipodi:rx="12.5"
       sodipodi:cy="77.362183"
       sodipodi:cx="132.5"
       id="path3949"
       style="fill:#b3b3b3;stroke:#000000"
       sodipodi:type="arc" />
    <text
       xml:space="preserve"
       style="font-size:40px;font-style:normal;font-weight:normal;line-height:125%;letter-spacing:0px;word-spacing:0px;fill:#000000;fill-opacity:1;stroke:none;display:inline;font-family:Sans"
       x="-1.9329596"
       y="30.32375"
       id="text3164"
       sodipodi:linespacing="125%"><tspan
         sodipodi:role="line"
         id="tspan3166"
         x="-1.9329596"
         y="30.32375">NMDA</tspan></text>
  </g>
</svg>
